<mxfile host="app.diagrams.net" modified="2023-04-13T00:50:34.921Z" agent="Mozilla/5.0 (Windows NT 10.0; Win64; x64) AppleWebKit/537.36 (KHTML, like Gecko) Chrome/111.0.0.0 Safari/537.36" etag="4vDObjTvSKepD8ObpOA-" version="21.1.7" type="device">
  <diagram name="Página-1" id="_q9g_A-d_hZxSC3Csa8Z">
    <mxGraphModel dx="2022" dy="663" grid="1" gridSize="10" guides="1" tooltips="1" connect="1" arrows="1" fold="1" page="1" pageScale="1" pageWidth="827" pageHeight="1169" math="0" shadow="0">
      <root>
        <mxCell id="0" />
        <mxCell id="1" parent="0" />
        <mxCell id="U_AWkNej2FqsrqXvzkgf-1" value="&lt;h1 style=&quot;font-size: 23px;&quot;&gt;&lt;font style=&quot;font-size: 23px;&quot;&gt;D&lt;/font&gt;&lt;font style=&quot;font-size: 23px;&quot;&gt;IAGRAMA DE&amp;nbsp; DEPÓSITO DE ROUPA&lt;/font&gt;&lt;/h1&gt;" style="text;html=1;strokeColor=#9673a6;fillColor=#e1d5e7;align=center;verticalAlign=middle;whiteSpace=wrap;rounded=0;" vertex="1" parent="1">
          <mxGeometry x="96" width="636" height="140" as="geometry" />
        </mxCell>
        <mxCell id="U_AWkNej2FqsrqXvzkgf-31" style="edgeStyle=orthogonalEdgeStyle;rounded=0;orthogonalLoop=1;jettySize=auto;html=1;exitX=1;exitY=0.25;exitDx=0;exitDy=0;entryX=0;entryY=0.138;entryDx=0;entryDy=0;entryPerimeter=0;" edge="1" parent="1" source="U_AWkNej2FqsrqXvzkgf-2" target="U_AWkNej2FqsrqXvzkgf-5">
          <mxGeometry relative="1" as="geometry" />
        </mxCell>
        <mxCell id="U_AWkNej2FqsrqXvzkgf-42" style="edgeStyle=orthogonalEdgeStyle;rounded=0;orthogonalLoop=1;jettySize=auto;html=1;entryX=1.017;entryY=0.431;entryDx=0;entryDy=0;entryPerimeter=0;" edge="1" parent="1" source="U_AWkNej2FqsrqXvzkgf-2" target="U_AWkNej2FqsrqXvzkgf-22">
          <mxGeometry relative="1" as="geometry" />
        </mxCell>
        <mxCell id="U_AWkNej2FqsrqXvzkgf-2" value="" style="rounded=0;whiteSpace=wrap;html=1;fillColor=#e1d5e7;strokeColor=#9673a6;" vertex="1" parent="1">
          <mxGeometry x="250" y="230" width="300" height="180" as="geometry" />
        </mxCell>
        <mxCell id="U_AWkNej2FqsrqXvzkgf-3" value="" style="rounded=0;whiteSpace=wrap;html=1;fillColor=#d0cee2;strokeColor=#56517e;" vertex="1" parent="1">
          <mxGeometry x="250" y="220" width="300" height="30" as="geometry" />
        </mxCell>
        <mxCell id="U_AWkNej2FqsrqXvzkgf-4" value="&lt;font style=&quot;font-size: 16px;&quot;&gt;Movimento Principal&lt;/font&gt;" style="text;html=1;strokeColor=none;fillColor=none;align=center;verticalAlign=middle;whiteSpace=wrap;rounded=0;" vertex="1" parent="1">
          <mxGeometry x="320" y="220" width="150" height="30" as="geometry" />
        </mxCell>
        <mxCell id="U_AWkNej2FqsrqXvzkgf-8" style="edgeStyle=orthogonalEdgeStyle;rounded=0;orthogonalLoop=1;jettySize=auto;html=1;entryX=1.005;entryY=0.473;entryDx=0;entryDy=0;entryPerimeter=0;" edge="1" parent="1" source="U_AWkNej2FqsrqXvzkgf-5" target="U_AWkNej2FqsrqXvzkgf-2">
          <mxGeometry relative="1" as="geometry">
            <mxPoint x="560" y="315" as="targetPoint" />
          </mxGeometry>
        </mxCell>
        <mxCell id="U_AWkNej2FqsrqXvzkgf-28" style="edgeStyle=orthogonalEdgeStyle;rounded=0;orthogonalLoop=1;jettySize=auto;html=1;" edge="1" parent="1" source="U_AWkNej2FqsrqXvzkgf-5" target="U_AWkNej2FqsrqXvzkgf-19">
          <mxGeometry relative="1" as="geometry">
            <Array as="points">
              <mxPoint x="810" y="430" />
              <mxPoint x="810" y="430" />
            </Array>
          </mxGeometry>
        </mxCell>
        <mxCell id="U_AWkNej2FqsrqXvzkgf-5" value="-id&lt;br&gt;-tipo&lt;br&gt;-cor&lt;br&gt;-tamanho&lt;br&gt;-quantidade&lt;br&gt;-preço" style="rounded=0;whiteSpace=wrap;html=1;fillColor=#e1d5e7;strokeColor=#9673a6;strokeWidth=1;" vertex="1" parent="1">
          <mxGeometry x="750" y="260" width="190" height="110" as="geometry" />
        </mxCell>
        <mxCell id="U_AWkNej2FqsrqXvzkgf-6" value="" style="rounded=0;whiteSpace=wrap;html=1;fillColor=#d0cee2;strokeColor=#56517e;" vertex="1" parent="1">
          <mxGeometry x="750" y="230" width="190" height="30" as="geometry" />
        </mxCell>
        <mxCell id="U_AWkNej2FqsrqXvzkgf-7" value="&lt;font style=&quot;font-size: 14px;&quot;&gt;Produto&lt;/font&gt;" style="text;html=1;strokeColor=none;fillColor=none;align=center;verticalAlign=middle;whiteSpace=wrap;rounded=0;" vertex="1" parent="1">
          <mxGeometry x="820" y="230" width="60" height="30" as="geometry" />
        </mxCell>
        <mxCell id="U_AWkNej2FqsrqXvzkgf-9" value="Data" style="text;html=1;strokeColor=none;fillColor=none;align=center;verticalAlign=middle;whiteSpace=wrap;rounded=0;" vertex="1" parent="1">
          <mxGeometry x="250" y="260" width="60" height="30" as="geometry" />
        </mxCell>
        <mxCell id="U_AWkNej2FqsrqXvzkgf-10" value="Prod" style="text;html=1;strokeColor=none;fillColor=none;align=center;verticalAlign=middle;whiteSpace=wrap;rounded=0;" vertex="1" parent="1">
          <mxGeometry x="300" y="260" width="60" height="30" as="geometry" />
        </mxCell>
        <mxCell id="U_AWkNej2FqsrqXvzkgf-11" value="Qtd" style="text;html=1;strokeColor=none;fillColor=none;align=center;verticalAlign=middle;whiteSpace=wrap;rounded=0;" vertex="1" parent="1">
          <mxGeometry x="354" y="260" width="60" height="30" as="geometry" />
        </mxCell>
        <mxCell id="U_AWkNej2FqsrqXvzkgf-12" value="Pr" style="text;html=1;strokeColor=none;fillColor=none;align=center;verticalAlign=middle;whiteSpace=wrap;rounded=0;" vertex="1" parent="1">
          <mxGeometry x="400" y="260" width="60" height="30" as="geometry" />
        </mxCell>
        <mxCell id="U_AWkNej2FqsrqXvzkgf-13" value="Tipo" style="text;html=1;strokeColor=none;fillColor=none;align=center;verticalAlign=middle;whiteSpace=wrap;rounded=0;" vertex="1" parent="1">
          <mxGeometry x="850" y="560" width="60" height="30" as="geometry" />
        </mxCell>
        <mxCell id="U_AWkNej2FqsrqXvzkgf-14" value="" style="endArrow=none;html=1;rounded=0;" edge="1" parent="1">
          <mxGeometry width="50" height="50" relative="1" as="geometry">
            <mxPoint x="840" y="530" as="sourcePoint" />
            <mxPoint x="840" y="530" as="targetPoint" />
          </mxGeometry>
        </mxCell>
        <mxCell id="U_AWkNej2FqsrqXvzkgf-21" style="edgeStyle=orthogonalEdgeStyle;rounded=0;orthogonalLoop=1;jettySize=auto;html=1;exitX=0.5;exitY=0;exitDx=0;exitDy=0;entryX=0.5;entryY=1;entryDx=0;entryDy=0;" edge="1" parent="1" source="U_AWkNej2FqsrqXvzkgf-19" target="U_AWkNej2FqsrqXvzkgf-5">
          <mxGeometry relative="1" as="geometry">
            <mxPoint x="850" y="380" as="targetPoint" />
            <Array as="points">
              <mxPoint x="845" y="500" />
            </Array>
          </mxGeometry>
        </mxCell>
        <mxCell id="U_AWkNej2FqsrqXvzkgf-19" value="" style="rounded=0;whiteSpace=wrap;html=1;fillColor=#d0cee2;strokeColor=#56517e;" vertex="1" parent="1">
          <mxGeometry x="760" y="500" width="180" height="90" as="geometry" />
        </mxCell>
        <mxCell id="U_AWkNej2FqsrqXvzkgf-20" value="&lt;font style=&quot;font-size: 14px;&quot;&gt;Fornecedor&lt;/font&gt;" style="text;html=1;strokeColor=none;fillColor=none;align=center;verticalAlign=middle;whiteSpace=wrap;rounded=0;" vertex="1" parent="1">
          <mxGeometry x="820" y="510" width="60" height="30" as="geometry" />
        </mxCell>
        <mxCell id="U_AWkNej2FqsrqXvzkgf-22" value="" style="rounded=0;whiteSpace=wrap;html=1;fillColor=#e1d5e7;strokeColor=#9673a6;" vertex="1" parent="1">
          <mxGeometry x="-130" y="260" width="180" height="140" as="geometry" />
        </mxCell>
        <mxCell id="U_AWkNej2FqsrqXvzkgf-27" value="Entrada por compra" style="text;html=1;strokeColor=none;fillColor=none;align=center;verticalAlign=middle;whiteSpace=wrap;rounded=0;" vertex="1" parent="1">
          <mxGeometry x="840" y="420" width="60" height="30" as="geometry" />
        </mxCell>
        <mxCell id="U_AWkNej2FqsrqXvzkgf-29" value="Saída por&lt;br&gt;Devolução" style="text;html=1;strokeColor=none;fillColor=none;align=center;verticalAlign=middle;whiteSpace=wrap;rounded=0;" vertex="1" parent="1">
          <mxGeometry x="750" y="420" width="60" height="30" as="geometry" />
        </mxCell>
        <mxCell id="U_AWkNej2FqsrqXvzkgf-30" value="Saída por venda" style="text;html=1;strokeColor=none;fillColor=none;align=center;verticalAlign=middle;whiteSpace=wrap;rounded=0;" vertex="1" parent="1">
          <mxGeometry x="610" y="290" width="100" height="30" as="geometry" />
        </mxCell>
        <mxCell id="U_AWkNej2FqsrqXvzkgf-34" value="Entrada por devolução" style="text;html=1;strokeColor=none;fillColor=none;align=center;verticalAlign=middle;whiteSpace=wrap;rounded=0;" vertex="1" parent="1">
          <mxGeometry x="580" y="240" width="110" height="30" as="geometry" />
        </mxCell>
        <mxCell id="U_AWkNej2FqsrqXvzkgf-35" value="Tipo" style="text;html=1;strokeColor=none;fillColor=none;align=center;verticalAlign=middle;whiteSpace=wrap;rounded=0;" vertex="1" parent="1">
          <mxGeometry x="440" y="260" width="60" height="30" as="geometry" />
        </mxCell>
        <mxCell id="U_AWkNej2FqsrqXvzkgf-36" value="Deposito" style="text;html=1;strokeColor=none;fillColor=none;align=center;verticalAlign=middle;whiteSpace=wrap;rounded=0;" vertex="1" parent="1">
          <mxGeometry x="490" y="260" width="60" height="30" as="geometry" />
        </mxCell>
        <mxCell id="U_AWkNej2FqsrqXvzkgf-37" value="" style="rounded=0;whiteSpace=wrap;html=1;fillColor=#d0cee2;strokeColor=#56517e;" vertex="1" parent="1">
          <mxGeometry x="-130" y="260" width="180" height="30" as="geometry" />
        </mxCell>
        <mxCell id="U_AWkNej2FqsrqXvzkgf-39" value="Depósito" style="text;html=1;strokeColor=none;fillColor=none;align=center;verticalAlign=middle;whiteSpace=wrap;rounded=0;" vertex="1" parent="1">
          <mxGeometry x="-70" y="260" width="60" height="30" as="geometry" />
        </mxCell>
        <mxCell id="U_AWkNej2FqsrqXvzkgf-40" value="-id" style="text;html=1;strokeColor=none;fillColor=none;align=center;verticalAlign=middle;whiteSpace=wrap;rounded=0;" vertex="1" parent="1">
          <mxGeometry x="-116" y="300" width="60" height="30" as="geometry" />
        </mxCell>
        <mxCell id="U_AWkNej2FqsrqXvzkgf-41" value="-nome" style="text;html=1;strokeColor=none;fillColor=none;align=center;verticalAlign=middle;whiteSpace=wrap;rounded=0;" vertex="1" parent="1">
          <mxGeometry x="-110" y="330" width="60" height="30" as="geometry" />
        </mxCell>
      </root>
    </mxGraphModel>
  </diagram>
</mxfile>
